<?xml version="1.0" encoding="UTF-8"?>
<svg id="Layer_2" data-name="Layer 2" xmlns="http://www.w3.org/2000/svg" viewBox="0 0 55.45 45.94">
  <defs>
    <style>
      .cls-1 {
        fill: #001f5a;
      }

      .cls-2 {
        fill: #fc5700;
      }
    </style>
  </defs>
  <g id="Layer_1-2" data-name="Layer 1">
    <g>
      <path class="cls-1" d="M34.41,44.54l-5.74-10.48,4.32-7.69,4.48,7.92,6.46-11.59c.63-1.14,2.39-1.48,3.53-1.1s2.13.82,3.13,1.3c1.2.58,1.3,1.82.7,2.9l-10.26,18.35c-1.29,2.32-4.81,2.23-6.61.39Z"/>
      <path class="cls-1" d="M26.64,33.97l-5.89,10.38c-1.18,2.07-5.25,2.16-6.43.02L4.04,25.79c-.57-1.03-.45-2.27.7-2.84,1.79-.9,5.33-2.66,6.74-.11l6.31,11.43,4.52-7.94,4.34,7.65Z"/>
      <path class="cls-2" d="M39.34,14.64c-2.7,3.41-5.08,6.71-7.25,10.36l-4.46,7.48-4.7-8.08c-2.04-3.51-4.16-6.8-6.55-10.07-2.51-3.44-5.48-6.09-9.03-8.57,7.73,1.68,15.75,8.88,20.47,14.81,4.06-4.66,8.61-8.58,13.76-11.8,2.19-1.14,4.04-2.51,6.72-3.07-3.24,2.71-6.19,5.51-8.96,8.93Z"/>
      <circle class="cls-1" cx="27.74" cy="5.63" r="5.63"/>
      <circle class="cls-1" cx="4.49" cy="16.32" r="4.49"/>
      <circle class="cls-1" cx="50.97" cy="16.31" r="4.48"/>
    </g>
  </g>
</svg>