<?xml version="1.0" encoding="UTF-8"?>
<svg id="Layer_2" data-name="Layer 2" xmlns="http://www.w3.org/2000/svg" viewBox="0 0 77.53 77.53">
  <g id="Layer_1-2" data-name="Layer 1">
    <g>
      <rect fill="#fc5700" width="77.53" height="77.53"/>
      <g>
        <path fill="#001f5a" d="M45.45,61.55l-5.74-10.48,4.32-7.69,4.48,7.92,6.46-11.59c.63-1.14,2.39-1.48,3.53-1.1s2.13.82,3.13,1.3c1.2.58,1.3,1.82.7,2.9l-10.26,18.35c-1.29,2.32-4.81,2.23-6.61.39Z"/>
        <path fill="#001f5a" d="M37.68,50.98l-5.89,10.38c-1.18,2.07-5.25,2.16-6.43.02l-10.28-18.58c-.57-1.03-.45-2.27.7-2.84,1.79-.9,5.33-2.66,6.74-.11l6.31,11.43,4.52-7.94,4.34,7.65Z"/>
        <path fill="#fff" d="M50.38,31.65c-2.7,3.41-5.08,6.71-7.25,10.36l-4.46,7.48-4.7-8.08c-2.04-3.51-4.16-6.8-6.55-10.07-2.51-3.44-5.48-6.09-9.03-8.57,7.73,1.68,15.75,8.88,20.47,14.81,4.06-4.66,8.61-8.58,13.76-11.8,2.19-1.14,4.04-2.51,6.72-3.07-3.24,2.71-6.19,5.51-8.96,8.93Z"/>
        <circle fill="#001f5a" cx="38.78" cy="22.64" r="5.63"/>
        <circle fill="#001f5a" cx="15.53" cy="33.33" r="4.49"/>
        <circle fill="#001f5a" cx="62.01" cy="33.32" r="4.48"/>
      </g>
    </g>
  </g>
</svg>
