<?xml version="1.0" encoding="UTF-8"?>
<svg xmlns="http://www.w3.org/2000/svg" viewBox="0 0 378.97 100.35">
  <g>
    <polygon fill="#fff" points="247.85 98.6 232.58 98.91 218.93 80.9 214.89 84.46 214.86 98.8 203.35 98.81 203.36 33.65 214.8 33.67 214.98 71.68 231.21 54.03 246.67 54.15 228.06 73.6 247.85 98.6"/>
    <path fill="#fff" d="M75.15,97.28l-12.54-22.89,9.43-16.8,9.78,17.3,14.12-25.32c1.39-2.49,5.23-3.23,7.7-2.39s4.66,1.79,6.83,2.85c2.61,1.27,2.84,3.98,1.53,6.32l-22.41,40.08c-2.83,5.06-10.5,4.86-14.45.86Z"/>
    <path fill="#fff" d="M58.19,74.2l-12.87,22.67c-2.57,4.53-11.46,4.73-14.05.05L8.82,56.34c-1.24-2.24-.98-4.95,1.53-6.21,3.91-1.96,11.65-5.81,14.72-.25l13.77,24.96,9.87-17.35,9.47,16.71Z"/>
    <path fill="#fff" d="M162.59,76.25c0,13.31-10.79,24.09-24.11,24.09s-24.11-10.79-24.11-24.09,10.79-24.09,24.11-24.09,24.11,10.79,24.11,24.09ZM151.8,76.15c0-7.36-5.97-13.32-13.33-13.32s-13.33,5.96-13.33,13.32,5.97,13.32,13.33,13.32,13.33-5.96,13.33-13.32Z"/>
    <path fill="#fc5700" d="M325.66,85.65l5.7,6.82c-4.25,4.92-10.32,7.02-16.84,7.22-8.41.26-16.32-3.55-20.23-11.11-4.16-8.04-3.81-17.68.77-25.41,3.86-6.51,10.53-9.88,18.01-9.75,9,.15,16.33,5.69,18.79,14.38,1.1,3.9,1.18,7.9.95,12.25l-30.25.06c.39,4.54,3.22,8.24,7.54,9.55,5.5,1.67,10.95.34,15.58-4.02ZM322.23,72.15c-.41-3.96-1.51-6.21-3.88-7.98-3.03-2.28-7.26-2.53-10.71-.55-2.82,1.62-5.11,5.03-5.01,8.68l19.6-.15Z"/>
    <path fill="#fc5700" d="M363.92,64.07c-3.27-1.68-6.67-1.34-9.62.31-2.56,1.43-4.57,4.59-4.59,8.05l-.1,26.32-10.85.07v-44.5s10.74-.1,10.74-.1l.29,4.91c3.65-4.36,8.65-5.93,14.11-5.69,8.49.37,14.91,6.56,14.95,15.31l.12,30.05-10.7.04-.08-27c0-3.1-1.55-6.38-4.26-7.77Z"/>
    <path fill="#fc5700" d="M85.92,31.97c-5.91,7.44-11.09,14.66-15.83,22.62l-9.73,16.34-10.28-17.64c-4.46-7.66-9.08-14.84-14.3-21.99-5.48-7.51-11.96-13.29-19.73-18.71,16.88,3.68,34.41,19.4,44.72,32.35,8.87-10.18,18.81-18.74,30.05-25.78,4.78-2.49,8.83-5.49,14.68-6.7-7.08,5.91-13.52,12.03-19.58,19.51Z"/>
    <path fill="#fc5700" d="M289.71,98.81l-35.67.06v-7.34s19.24-27.66,19.24-27.66l-18.86-.13.02-9.46,34.14-.02c.25,1.87.35,4.23.09,6.1l-20.24,28.67,21.17.16.1,9.63Z"/>
    <path fill="#fff" d="M180.07,98.83l-11.6.02-.02-44.77,11.42-.03.25,6.14c3.36-5.86,9.9-8.62,16.51-6.78l-.05,11.22c-3.83-.75-7.07-1.01-10.33.57-3.63,1.75-6.08,5.79-6.1,9.99l-.09,23.63Z"/>
    <ellipse fill="#fff" cx="60.58" cy="12.3" rx="12.31" ry="12.3"/>
    <ellipse fill="#fff" cx="9.81" cy="35.65" rx="9.81" ry="9.8"/>
    <ellipse fill="#fff" cx="111.33" cy="35.62" rx="9.79" ry="9.78"/>
  </g>
</svg>
